# xmcd
#
# Track frame offsets:
#	150
#	9767
#	21853
#	38707
#	51157
#	61000
#	74371
#	88555
#	102635
#	116135
#	126963
#	138371
#	151068
#	172295
#	182894
#	191818
#	204347
#	213819
#	226898
#	244532
#	262650
#	278121
#	291970
#	303797
#	316665
#	328833
#	343513
#
# Disc length: 4742 seconds
#
# Revision: 1
# Processed by: cddbd v1.5.1PL2 Copyright (c) Steve Scherf et al.
# Submitted via: audiograbber 1.83.01
#
DISCID=7a12841b
DTITLE=Johnny Cash - Best of Johnny Cd 2
DYEAR=1900
DGENRE=Country
TTITLE0=I Got Stripes
TTITLE1=I Never Picked Cotton
TTITLE2=I See A Darkness
TTITLE3=I Walk The Line
TTITLE4=I Won't Back Down
TTITLE5=Johnny Cash and June Carter - If Were A Carpenter
TTITLE6=I'm Leavn' Now
TTITLE7=I'm On Fire
TTITLE8=In My Life
TTITLE9=In The Jailhouse Now
TTITLE10=I've Been Everywhere
TTITLE11=Johnny Cash and June Carter - Jackson
TTITLE12=Truck Stop - Johnny Cash Medley
TTITLE13=Kate
TTITLE14=Kleine Rosmarie
TTITLE15=Long Black Veil
TTITLE16=Johnny Cash and Carter Family - Lonsome Valley
TTITLE17=Man In Black
TTITLE18=One
TTITLE19=One Piece At A Time
TTITLE20=Johnny Cash and Bob Dylan - One Too Many Mornings
TTITLE21=Orange Blossom Special
TTITLE22=Rings Of Fire 
TTITLE23=Rusty Cage
TTITLE24=Sam Hall
TTITLE25=San Quentin
TTITLE26=Sea Of Heartbreak
EXTD=
EXTT0=
EXTT1=
EXTT2=
EXTT3=
EXTT4=
EXTT5=
EXTT6=
EXTT7=
EXTT8=
EXTT9=
EXTT10=
EXTT11=
EXTT12=
EXTT13=
EXTT14=
EXTT15=
EXTT16=
EXTT17=
EXTT18=
EXTT19=
EXTT20=
EXTT21=
EXTT22=
EXTT23=
EXTT24=
EXTT25=
EXTT26=
PLAYORDER=
